<svg id="Capa_1" data-name="Capa 1" xmlns="http://www.w3.org/2000/svg" viewBox="0 0 85 51"><defs><style>.cls-1{fill:#0090cf;}</style></defs><title>visitante</title><path class="cls-1" d="M24.09,28.6a9.06,9.06,0,1,0-9.71,0,17.89,17.89,0,0,0-13,17.21c0,9.87,35.75,9.87,35.75,0A17.89,17.89,0,0,0,24.09,28.6Z" transform="translate(-1.36 -2.21)"/><path class="cls-1" d="M85.53,30.24,58.26,3a2.56,2.56,0,0,0-3.64,0L41.46,16.14a9.07,9.07,0,0,1-.49,5,14.6,14.6,0,0,1,6,11.78c0,1.65-.75,5.39-7,7.2a21.6,21.6,0,0,1,.78,5.7,8,8,0,0,1-3.37,6.48h8.66a6.22,6.22,0,0,0,6.22-6.22V36.29a4.62,4.62,0,0,1,4.17-4.58,4.62,4.62,0,0,1,4.17,4.58v9.78a6.22,6.22,0,0,0,6.21,6.22H80.14a6.23,6.23,0,0,0,6.22-6.22V32.75a5.88,5.88,0,0,0-.12-1.17A2.58,2.58,0,0,0,85.53,30.24Z" transform="translate(-1.36 -2.21)"/><path class="cls-1" d="M27.57,28a19.76,19.76,0,0,1,9.29,9.12c3.64-.61,6.48-2,6.48-4.17a10.91,10.91,0,0,0-8-10.5A5.52,5.52,0,1,0,28,14.5,10.83,10.83,0,0,1,27.57,28Z" transform="translate(-1.36 -2.21)"/></svg>